<svg id="Layer_1" fill="#188352" enable-background="new 0 0 503.121 503.121" height="512" viewBox="0 0 503.121 503.121" width="512" xmlns="http://www.w3.org/2000/svg"><path d="m454.641 0h-306.687c-8.836 0-16 7.163-16 16v231.997h-83.474c-8.836 0-16 7.163-16 16v178.126c0 33.635 27.364 60.998 60.999 60.998h316.581c33.404 0 60.581-27.177 60.581-60.581v-426.54c0-8.837-7.163-16-16-16zm-361.162 471.121c-15.99 0-28.999-13.009-28.999-28.998v-162.126h67.474c0 178.757.917 181.137-2.356 187.611-2.211 4.373-10.091 3.513-36.119 3.513zm345.162-28.581c0 15.76-12.821 28.581-28.581 28.581h-248.066c2.804-12.519 1.96 12.889 1.96-439.121h274.687z"/><path d="m227.962 134.927h150.193c8.837 0 16-7.163 16-16s-7.163-16-16-16h-150.193c-8.836 0-16 7.163-16 16s7.164 16 16 16z"/><path d="m227.962 223.35h150.193c8.837 0 16-7.163 16-16s-7.163-16-16-16h-150.193c-8.836 0-16 7.163-16 16s7.164 16 16 16z"/><path d="m227.962 311.771h150.193c8.837 0 16-7.163 16-16s-7.163-16-16-16h-150.193c-8.836 0-16 7.163-16 16s7.164 16 16 16z"/><path d="m227.962 400.194h150.193c8.837 0 16-7.163 16-16s-7.163-16-16-16h-150.193c-8.836 0-16 7.163-16 16s7.164 16 16 16z"/></svg>
