<svg height="474pt" fill="#188352" viewBox="0 -16 474.0223 474" width="474pt" xmlns="http://www.w3.org/2000/svg"><path d="m335.535156 217.066406c25.046875-.191406 45.300782-20.464844 45.464844-45.515625v-33.539062h-91v33.574219c0 24.9375 20.5625 45.355468 45.535156 45.480468zm0 0"/><path d="m194.765625 100.011719-7.796875 24h85.910156l-7.796875-24zm0 0"/><path d="m184 171.585938c1 24.9375 20.5625 45.355468 45.535156 45.480468 25.050782-.191406 45.300782-20.464844 45.464844-45.515625v-33.539062h-91zm0 0"/><path d="m357 .0117188h-254v86.0000002h166.839844c.261718-1 .519531-1 .777344 0h86.382812zm0 0"/><path d="m454.359375 124.011719-42.683594-69h-40.675781v31.085937l21.097656 37.914063zm0 0"/><path d="m427.382812 195.011719h.464844c8.582032.007812 16.800782-3.441407 22.808594-9.566407 6.019531-6.074218 9.382812-14.292968 9.34375-22.84375v-24.589843h-65v25c-.007812 8.550781 3.4375 16.742187 9.550781 22.71875 6.078125 6 14.289063 9.335937 22.832031 9.28125zm0 0"/><path d="m376.179688 124.011719-13.476563-24h-82.949219l7.796875 24zm0 0"/><path d="m180.097656 100.011719h-79.460937l-15.929688 24h87.59375zm0 0"/><path d="m402.4375 284.09375c21.875 3.550781 36.730469 24.160156 33.183594 46.035156-3.550782 21.875-24.164063 36.730469-46.039063 33.183594-21.875-3.550781-36.730469-24.164062-33.179687-46.039062 3.550781-21.875 24.160156-36.730469 46.035156-33.179688zm0 0"/><path d="m309.699219 355.898438c-10.582031-28.246094-6.617188-59.890626 10.601562-84.65625 16.105469-23.308594 40.699219-37.390626 68.699219-39.320313v-35.582031c-9 20.367187-29.921875 34.605468-53.722656 34.726562-22.191406-.167968-42.457032-12.628906-52.625-32.355468-10.066406 19.753906-30.324219 32.238281-52.496094 32.351562-22.175781.117188-42.558594-12.15625-52.832031-31.804688-10.363281 19.433594-30.535157 31.640626-52.558594 31.804688-24.332031-.117188-44.765625-14.933594-54.765625-35.953125v201.902344h269.863281l-16.8125-19.429688c-5.71875-6.367187-10.238281-13.710937-13.351562-21.683593zm0 0"/><path d="m396.007812 245.683594c-25.585937-.191406-49.585937 12.375-64 33.515625-14.636718 20.984375-18.039062 47.820312-9.101562 71.792969 2.519531 6.511718 6.183594 12.523437 10.820312 17.742187l62.285157 73.160156 62.25-73.121093.03125-.039063c5.210937-6.03125 8.636719-11.628906 10.773437-17.621094l.046875-.121093c8.9375-23.972657 5.539063-50.808594-9.101562-71.792969-14.414063-21.140625-38.417969-33.707031-64.003907-33.515625zm0 132.140625c-29.894531 0-54.125-24.230469-54.125-54.125s24.230469-54.128907 54.125-54.128907c29.894532 0 54.128907 24.234376 54.128907 54.128907-.035157 29.878906-24.25 54.09375-54.128907 54.125zm0 0"/><path d="m79 171.585938c1 24.9375 20.5625 45.355468 45.535156 45.480468 25.050782-.191406 45.300782-20.464844 45.464844-45.515625v-33.539062h-91zm0 0"/><path d="m89 55.011719h-31.042969l-51.132812 69h61.265625l20.910156-31.460938zm0 0"/><path d="m0 163.003906c-.0078125 8.550782 3.4375 16.746094 9.550781 22.726563 6.078125 6 14.289063 9.339843 22.832031 9.28125h.464844c8.582032.007812 16.800782-3.441407 22.808594-9.566407 6.019531-6.074218 9.382812-14.292968 9.34375-22.84375v-24.589843h-65zm0 0"/></svg>
